<?xml version="1.0" standalone="no"?>
<!DOCTYPE svg PUBLIC "-//W3C//DTD SVG 20010904//EN"
 "http://www.w3.org/TR/2001/REC-SVG-20010904/DTD/svg10.dtd">
<svg version="1.0" xmlns="http://www.w3.org/2000/svg"
 width="280.000000pt" height="280.000000pt" viewBox="0 0 280.000000 280.000000"
 preserveAspectRatio="xMidYMid meet">
<metadata>
Created by potrace 1.14, written by Peter Selinger 2001-2017
</metadata>
<g transform="translate(0.000000,280.000000) scale(0.100000,-0.100000)"
fill="#000000" stroke="none">
<path d="M1443 2477 c-3 -5 -5 -375 -5 -822 0 -481 -4 -832 -9 -857 -13 -56
-53 -116 -87 -130 -38 -16 -118 -11 -148 8 -36 24 -65 87 -78 173 l-12 74
-234 0 -235 0 3 -49 c10 -151 69 -298 157 -389 61 -64 171 -125 270 -151 95
-25 322 -25 415 0 108 28 206 83 279 156 77 75 122 153 153 267 22 77 22 91
24 903 l3 825 -245 0 c-135 0 -248 -4 -251 -8z"/>
</g>
</svg>
